<?xml version="1.0" encoding="utf-8"?>
<!-- Generator: Adobe Illustrator 16.0.0, SVG Export Plug-In . SVG Version: 6.00 Build 0)  -->
<!DOCTYPE svg PUBLIC "-//W3C//DTD SVG 1.1//EN" "http://www.w3.org/Graphics/SVG/1.1/DTD/svg11.dtd">
<svg version="1.1" id="Calque_1" xmlns="http://www.w3.org/2000/svg" xmlns:xlink="http://www.w3.org/1999/xlink" x="0px" y="0px"
	   viewBox="170.2 370.9 257 100.2" enable-background="new 0 0 595.28 841.89" xml:space="preserve">
<g>
	<path fill="#FFFFFF" d="M422.154,407.48c0-5.344-4.332-9.677-9.676-9.676H258.987c-7.879-13.149-22.258-21.953-38.703-21.953
		c-24.902,0-45.094,20.19-45.094,45.094c0,24.906,20.191,45.094,45.094,45.094c16.445,0,30.824-8.805,38.703-21.953h153.491
		c5.344,0,9.68-4.328,9.68-9.676L422.154,407.48z"/>
	<g>
		<path fill="#B2B2B2" d="M203.897,430.82c3.836,0,7.75,0.279,11.418,0.809c-0.152-0.051-0.312-0.102-0.469-0.156
			c-6.035-2.012-9.668-3.227-12.914-3.301c-2.398-0.062-6.891-0.703-10.438-2.623c-0.383,0.826-0.508,1.428-0.48,1.752
			c0.309,0.824,3.98,3.609,8.855,3.609c0.191,0,0.387-0.004,0.582-0.014C201.589,430.846,202.741,430.82,203.897,430.82z"/>
		<path fill="#B2B2B2" d="M216.956,425.047c-5.137-3.766-12.039-12.348-12.039-12.348c-5.125,0-7.43-3.772-8.809-6.025
			c-0.219-0.356-0.535-0.87-0.816-1.272c-0.336,1.096-0.574,3.043-0.508,4.596c0.016,0.462-0.055,0.899-0.207,1.315
			c-1.402,3.741-1.25,6.444-1.105,7.484c1.066,1.157,4.988,2.522,8.629,2.612C206.358,421.514,210.573,422.917,216.956,425.047z"/>
		<path fill="#B2B2B2" d="M254.515,422.423c-1.051-2.483-4.398-3.539-8.418-4.78c-2.055-0.634-4.387-1.354-6.918-2.367
			c-5.168-2.067-11.414-8.123-15.977-12.543c-4.215-4.085-5.738-5.496-7.102-5.496c-3.512,0-4.926,6.131-5.18,7.364l-0.047,0.262
			c-0.215,1.169-0.48,2.628-5.492,2.988c-2.598,0.127-3.664-1.257-5.176-3.73c-1.129-1.852-2.41-3.949-5.172-4.07
			c-1.094,0-2.086,0.43-2.863,1.245c-2.191,2.283-2.25,7.237-2.223,8.608c-2.262,6.235-1.117,10.409-1.066,10.586
			c0.004,0.01,0.008,0.017,0.012,0.024c-1.039,1.421-2.941,4.428-2.688,7.221c0.379,4.18,7.781,8.316,14.465,7.984
			c6.355-0.273,13.508,0.336,19.137,1.656c1.715,0.402,4.445,0.656,7.664,0.656c8.488,0,20.398-1.762,26.262-7.225
			C256.749,427.996,256.069,424.613,254.515,422.423z M233.897,415.701c0.602,0.393,1.199,0.755,1.797,1.088
			c-1.59,0.521-2.742,0.473-3.406,0.349L233.897,415.701z M229.374,412.328c0.691,0.573,1.391,1.13,2.09,1.661l-1.734,1.547
			c-0.641-0.482-1.398-1.059-2.23-1.688L229.374,412.328z M224.507,407.993c0.855,0.803,1.727,1.613,2.629,2.416l-2.012,1.633
			c-0.941-0.716-1.883-1.437-2.777-2.123L224.507,407.993z M215.882,400.105c0.719,0.264,3.156,2.625,5.305,4.708
			c0.387,0.375,0.805,0.777,1.215,1.173l-2.395,2.131c-0.605-0.468-1.125-0.874-1.496-1.174c-1.664-1.331-3.395-1.729-4.742-1.788
			C214.323,402.432,215.593,400.134,215.882,400.105z M220.468,434.555c-5.957-1.398-13.223-2.035-19.926-1.729
			c-6.055,0.287-11.273-3.377-11.449-5.352c-0.133-1.453,0.863-3.342,1.73-4.655c2.949,2.31,8,3.341,11.156,3.419
			c3.539,0.086,7.273,1.332,13.477,3.402c6.152,2.047,13.113,2.984,16.98,2.984c0.168,0,13.191-0.434,19.297-3.916
			C244.667,435.25,226.562,435.979,220.468,434.555z M251.944,424.68c-0.379,2.707-13.316,5.045-19.508,5.045
			c-3.641,0-10.223-0.887-16.086-2.842c-6.219-2.074-10.328-3.445-14.301-3.543s-9.141-1.663-10.41-3.773
			c-0.141-0.71-0.688-4.089,1.121-8.918c0.07-0.181,0.102-0.374,0.094-0.569c-0.07-1.66,0.18-5.501,1.406-6.781
			c0.234-0.243,0.465-0.351,0.828-0.351c0.004,0,0.004,0,0.008,0c0.98,0.048,1.637,1.05,2.637,2.684
			c1.391,2.273,3.316,5.461,7.863,5.109c3.883-0.28,5.871-1.283,6.949-2.638c0.742-0.128,2.484-0.231,4.156,1.105
			c0.293,0.235,0.676,0.536,1.105,0.871l-1.637,1.46c-0.598,0.533-0.652,1.449-0.117,2.048c0.285,0.319,0.68,0.483,1.082,0.483
			c0.344,0,0.688-0.12,0.965-0.365l2.043-1.821c0.848,0.646,1.754,1.342,2.672,2.042l-1.242,1.005
			c-0.621,0.507-0.715,1.419-0.211,2.04c0.285,0.353,0.703,0.534,1.121,0.534c0.324,0,0.648-0.105,0.918-0.323l1.789-1.453
			c0.848,0.646,1.641,1.244,2.336,1.772l-0.746,0.668c-0.598,0.532-0.648,1.448-0.117,2.047c0.289,0.319,0.684,0.482,1.082,0.482
			c0.344,0,0.688-0.121,0.965-0.368l1.18-1.052c0.043,0.034,0.105,0.078,0.125,0.095c0.086,0.05,1.27,0.724,3.297,0.722
			c1.516,0,3.527-0.424,5.883-1.73c2.195,0.829,4.246,1.491,6.047,2.048C250.831,422.139,252.206,422.819,251.944,424.68z"/>
	</g>
	<text transform="matrix(1 0 0 1 267.1201 430.915)" fill="#B2B2B2" font-family="-apple-system,BlinkMacSystemFont,'SF Pro Text','SFUIText-Bold',Helvetica,Arial,sans-serif" font-weight="700" font-size="32.4676">Lifestyle</text>
</g>
</svg>
