<?xml version="1.0" encoding="utf-8"?>
<!-- Generator: Adobe Illustrator 23.1.1, SVG Export Plug-In . SVG Version: 6.00 Build 0)  -->
<svg version="1.1" id="Calque_1" xmlns="http://www.w3.org/2000/svg" xmlns:xlink="http://www.w3.org/1999/xlink"
	 viewBox="215.00 338.25 165.25 165.25" style="enable-background:new 0 0 595.28 841.89;" xml:space="preserve">
<style type="text/css">
	.st0{fill:#FFFFFF;}
	.st1{fill:#A6A9A9;}
	.st2{fill:#A3A5A8;}
</style>
<g>
	<path class="st0" d="M366.6,420.94c0,38.09-30.88,68.96-68.96,68.96c-38.09,0-68.96-30.87-68.96-68.96
		c0-38.08,30.87-68.96,68.96-68.96C335.72,351.98,366.6,382.86,366.6,420.94z"/>
	<path class="st1" d="M297.64,492.19c-39.28,0-71.25-31.97-71.25-71.25c0-39.29,31.97-71.25,71.25-71.25
		c39.28,0,71.25,31.96,71.25,71.25C368.89,460.23,336.92,492.19,297.64,492.19z M297.64,354.28c-36.76,0-66.67,29.9-66.67,66.66
		c0,36.75,29.91,66.67,66.67,66.67c36.76,0,66.67-29.92,66.67-66.67C364.31,384.18,334.4,354.28,297.64,354.28z"/>
	<g>
		<path class="st2" d="M354.43,419.56c-0.15-0.37-14.85-36.52-56.8-36.52c-41.96,0-56.66,36.16-56.8,36.52
			c-0.35,0.88-0.35,1.87,0,2.75c0.14,0.37,14.83,36.52,56.8,36.52c41.95,0,56.65-36.16,56.8-36.52
			C354.79,421.43,354.79,420.45,354.43,419.56z M248.44,420.94c2.78-5.89,15.24-28.08,44.69-30.18
			c-14.76,2.2-26.12,14.8-26.12,30.18c0,15.38,11.36,27.98,26.12,30.18C263.68,449.02,251.22,426.83,248.44,420.94z M278.13,419.8
			c0-1.09,0.15-2.14,0.32-3.17c1.33,0.55,2.78,0.86,4.29,0.86c6.2,0,11.22-5.03,11.22-11.22c0-1.9-0.52-3.66-1.35-5.24
			c1.62-0.43,3.28-0.73,5.02-0.73c10.78,0,19.5,8.74,19.5,19.51c0,10.77-8.72,19.5-19.5,19.5
			C286.86,439.3,278.13,430.57,278.13,419.8z M302.14,451.12c14.75-2.2,26.12-14.8,26.12-30.18c0-15.38-11.37-27.98-26.12-30.18
			c29.45,2.1,41.9,24.29,44.68,30.18C344.05,426.83,331.6,449.02,302.14,451.12z"/>
	</g>
	<circle class="st2" cx="283.74" cy="407.2" r="10.54"/>
</g>
</svg>
